# xmcd
#
# Track frame offsets: 
#        150
#        21413
#        41179
#        56509
#        70867
#        84889
#        106026
#        120565
#        141310
#        163811
#        182096
#        195812
#
# Disc length: 2824 seconds
#
# Revision: 0
# Processed by: cddbd v1.5.2PL0 Copyright (c) Steve Scherf et al.
# Submitted via: ExactAudioCopy v1.0b4
#
DISCID=9c0b060c
DTITLE=Sean Costello - In The Magic Shop
DYEAR=2014
DGENRE=Modern Blues, Electric Blues
TTITLE0=It's My Own Fault
TTITLE1=Can't Let Go
TTITLE2=Hard Luck Woman
TTITLE3=Trust In Me
TTITLE4=Feel Like I Ain't Got A Home
TTITLE5=You Don't Know What Love Is
TTITLE6=Check It Out
TTITLE7=I Went Wrong
TTITLE8=You Wear It Well
TTITLE9=Told Me A Lie
TTITLE10=Make A Move
TTITLE11=Fool's Paradise
EXTD=
EXTT0=
EXTT1=
EXTT2=
EXTT3=
EXTT4=
EXTT5=
EXTT6=
EXTT7=
EXTT8=
EXTT9=
EXTT10=
EXTT11=
PLAYORDER=
